<?xml version="1.0" standalone="no"?>
<!DOCTYPE svg PUBLIC "-//W3C//DTD SVG 20010904//EN"
 "http://www.w3.org/TR/2001/REC-SVG-20010904/DTD/svg10.dtd">
<svg version="1.0" xmlns="http://www.w3.org/2000/svg"
 width="1080.000000pt" height="1350.000000pt" viewBox="0 0 1080.000000 1350.000000"
 preserveAspectRatio="xMidYMid meet">

<g transform="translate(0.000000,1350.000000) scale(0.100000,-0.100000)"
fill="#fff" stroke="none">
<path d="M5315 10673 c-38 -10 -74 -44 -84 -78 -28 -101 65 -180 165 -140 104
41 95 184 -14 215 -20 5 -39 9 -42 9 -3 -1 -14 -4 -25 -6z m85 -65 c43 -46 12
-118 -52 -118 -17 0 -40 7 -50 17 -23 20 -24 80 -1 105 23 25 77 24 103 -4z"/>
<path d="M5666 10583 c-4 -43 -10 -95 -13 -115 -5 -36 -4 -38 20 -38 20 0 27
6 32 30 10 43 45 41 69 -5 14 -25 26 -35 43 -35 27 0 28 3 7 39 -16 27 -15 29
10 54 33 33 34 76 2 106 -19 18 -98 39 -157 41 -3 0 -9 -35 -13 -77z m128 11
c34 -33 11 -64 -47 -64 -36 0 -39 2 -33 23 3 12 6 30 6 40 0 22 52 23 74 1z"/>
<path d="M4876 10643 l-29 -5 7 -76 c11 -130 15 -142 43 -142 22 0 25 3 21 30
-4 27 -2 30 31 36 47 9 87 29 95 49 12 33 5 66 -19 90 -24 25 -66 30 -149 18z
m108 -49 c31 -31 14 -58 -41 -66 -29 -4 -32 -2 -38 30 -4 24 -2 38 7 43 21 14
55 10 72 -7z"/>
<path d="M4605 10600 c-14 -5 -27 -30 -43 -79 -13 -39 -27 -71 -31 -71 -5 0
-30 25 -56 55 -25 30 -52 55 -58 55 -34 -1 -35 -15 -12 -118 13 -57 25 -105
27 -107 2 -3 13 -2 24 1 20 5 20 8 8 62 -7 31 -11 58 -9 60 2 2 20 -15 40 -37
21 -23 43 -41 51 -41 8 0 21 24 31 60 10 33 21 60 24 60 4 0 10 -21 14 -46 3
-26 9 -53 12 -60 5 -14 34 -19 45 -9 4 4 -39 216 -45 221 -1 1 -11 -2 -22 -6z"/>
<path d="M6030 10591 c0 -14 10 -21 35 -25 19 -4 35 -8 35 -9 0 -2 -8 -42 -19
-89 l-19 -86 21 -6 c30 -8 34 -3 47 71 18 104 16 100 57 99 26 -1 38 4 41 14
2 13 -17 20 -86 33 -110 21 -112 21 -112 -2z"/>
<path d="M6412 10510 c-29 -12 -46 -54 -32 -81 6 -11 28 -30 50 -44 47 -30 54
-40 36 -54 -16 -13 -59 0 -89 27 -16 14 -19 14 -27 2 -15 -23 -12 -29 23 -50
70 -43 139 -32 153 25 7 30 -6 48 -58 81 -65 41 -40 78 28 44 20 -11 41 -17
45 -14 21 12 6 36 -33 54 -48 22 -62 23 -96 10z"/>
<path d="M4147 10483 c-11 -3 -16 -11 -13 -19 3 -7 17 -53 32 -101 14 -49 29
-91 33 -94 3 -4 16 -3 28 2 l22 8 -35 105 c-20 59 -39 105 -42 105 -4 -1 -15
-3 -25 -6z"/>
<path d="M3651 10285 c-40 -19 -52 -29 -47 -41 3 -8 6 -18 6 -20 0 -2 16 3 36
11 20 8 37 15 38 15 1 0 15 -27 31 -61 29 -59 29 -61 10 -75 -10 -8 -27 -12
-36 -9 -19 6 -35 -23 -20 -38 16 -16 79 2 101 30 11 14 20 31 20 37 0 16 -72
176 -79 175 -3 0 -30 -11 -60 -24z"/>
<path d="M6941 10244 c-12 -15 -21 -32 -21 -39 0 -26 41 -65 69 -65 58 0 85
76 41 112 -32 26 -65 22 -89 -8z"/>
<path d="M3380 10133 c-8 -3 -38 -19 -67 -35 l-52 -29 57 -94 c57 -95 68 -105
89 -84 9 9 9 19 -2 39 -13 25 -12 28 9 40 19 10 29 9 55 -4 24 -13 36 -14 51
-6 25 13 20 23 -19 39 -26 12 -28 16 -24 51 5 32 1 43 -20 64 -25 25 -46 30
-77 19z m48 -74 c2 -20 -4 -32 -27 -48 l-31 -22 -20 33 -20 33 22 18 c32 26
72 19 76 -14z"/>
<path d="M7591 9952 c-7 -13 -3 -22 21 -43 l31 -25 -34 -47 c-19 -25 -40 -48
-46 -51 -19 -8 -42 4 -48 25 -7 21 -30 25 -41 8 -19 -32 64 -97 106 -84 18 6
137 153 128 159 -2 1 -26 19 -55 39 -47 33 -53 35 -62 19z"/>
<path d="M3033 9912 c-43 -32 -49 -40 -39 -54 11 -15 15 -14 43 8 l31 24 36
-49 c20 -27 36 -55 36 -63 0 -19 -20 -38 -42 -38 -11 0 -18 -7 -18 -20 0 -24
28 -27 69 -5 57 29 55 72 -9 163 -28 40 -52 72 -53 72 -2 0 -26 -17 -54 -38z"/>
<path d="M7815 9692 c-98 -113 -91 -100 -72 -119 15 -16 18 -15 42 7 21 19 27
21 40 10 11 -9 15 -26 14 -51 -2 -26 3 -44 16 -60 l20 -21 5 43 c5 38 8 42 34
44 30 1 76 44 76 71 0 28 -29 71 -73 107 l-44 36 -58 -67z m108 -34 c15 -21
17 -30 8 -47 -15 -27 -35 -27 -73 0 l-29 21 27 29 c32 33 40 33 67 -3z"/>
<path d="M8140 9485 c-11 -13 -9 -20 15 -45 16 -17 27 -32 24 -34 -90 -81
-101 -87 -120 -70 -11 9 -19 23 -19 31 0 7 -9 13 -20 13 -29 0 -25 -34 8 -71
39 -43 70 -41 129 9 26 22 58 51 70 64 l23 24 -48 48 c-43 42 -50 45 -62 31z"/>
<path d="M5270 9349 c-69 -60 -138 -123 -153 -138 l-29 -28 40 -129 c22 -71
44 -137 48 -148 6 -16 5 -17 -15 -6 -15 7 -44 9 -86 5 l-64 -7 40 -34 c26 -21
52 -34 70 -34 25 0 30 -5 40 -42 6 -24 9 -63 6 -88 -4 -44 -4 -45 9 -15 7 17
13 51 14 78 0 26 3 47 8 47 4 0 16 -29 26 -64 l18 -65 -103 -165 c-56 -92
-103 -165 -105 -164 -1 2 10 69 25 150 l27 146 -101 172 c-56 95 -105 172
-109 172 -4 0 -61 -46 -127 -103 -90 -79 -117 -109 -114 -124 2 -10 80 -189
172 -397 l168 -378 425 3 424 2 178 395 177 395 -23 20 c-13 11 -71 62 -129
113 l-105 92 -104 -182 -104 -181 22 -136 c13 -74 26 -141 28 -148 3 -7 1 -13
-4 -13 -6 0 -10 3 -10 8 0 4 -43 77 -96 162 -102 167 -104 174 -69 255 l13 30
2 -35 c1 -19 7 -53 14 -75 l13 -40 0 55 c1 90 10 120 39 120 30 0 73 21 97 48
18 19 17 20 -45 26 -35 4 -71 4 -80 1 -13 -5 -7 22 28 132 24 76 44 143 44
148 0 9 -291 267 -308 272 -4 2 -63 -47 -132 -108z m407 -495 c-9 -9 -28 6
-21 18 4 6 10 6 17 -1 6 -6 8 -13 4 -17z m-547 6 c0 -5 -4 -10 -9 -10 -6 0
-13 5 -16 10 -3 6 1 10 9 10 9 0 16 -4 16 -10z m116 -331 c30 -18 35 -19 40
-5 9 23 199 23 224 1 15 -14 20 -13 43 5 29 23 37 25 37 7 0 -16 -43 -57 -92
-86 -60 -36 -88 -76 -88 -125 l0 -43 80 -48 c67 -39 87 -46 120 -43 22 2 40 2
40 1 0 -1 -10 -23 -22 -48 l-22 -45 -65 63 c-118 113 -162 114 -276 6 l-74
-70 -22 48 c-33 68 -33 69 -18 56 22 -21 83 -15 123 12 21 14 55 34 77 45 35
18 39 24 39 58 0 53 -32 98 -99 140 -33 20 -67 49 -76 64 -19 33 -13 35 31 7z"/>
<path d="M2531 9414 c-12 -15 -21 -33 -21 -41 0 -21 46 -63 70 -63 24 0 70 42
70 63 0 28 -41 67 -70 67 -19 0 -36 -9 -49 -26z"/>
<path d="M3630 9175 c0 -15 207 -454 215 -456 15 -3 237 321 222 326 -38 14
-423 135 -429 135 -5 0 -8 -2 -8 -5z"/>
<path d="M6940 9111 c-123 -41 -204 -72 -203 -79 4 -15 216 -322 223 -322 5 0
181 388 206 453 4 11 1 17 -7 16 -8 0 -106 -31 -219 -68z"/>
<path d="M8450 9003 c-102 -74 -103 -75 -86 -98 12 -17 18 -15 102 45 49 35
91 65 93 67 3 2 -4 12 -15 22 -19 18 -21 17 -94 -36z"/>
<path d="M2151 9015 c-37 -42 -47 -78 -33 -110 19 -42 57 -42 115 -2 28 20 55
34 59 31 18 -11 6 -44 -27 -73 -22 -19 -33 -36 -29 -46 9 -22 19 -19 58 15 61
54 68 122 16 150 -28 15 -33 13 -83 -25 -51 -39 -62 -42 -71 -19 -4 10 6 28
27 49 25 25 31 38 25 49 -13 23 -22 20 -57 -19z"/>
<path d="M4045 8808 c-77 -105 -143 -197 -147 -204 -6 -8 239 -591 257 -612 1
-2 84 107 183 242 l181 244 -107 243 -108 243 -43 13 c-24 7 -51 15 -60 18
-13 4 -52 -43 -156 -187z"/>
<path d="M6550 8981 l-54 -17 -103 -239 c-70 -162 -101 -245 -96 -256 12 -24
337 -478 343 -478 8 0 265 589 264 603 -1 14 -286 406 -294 405 -3 -1 -30 -9
-60 -18z"/>
<path d="M8586 8787 c-93 -54 -102 -63 -87 -86 7 -11 20 -8 65 18 31 18 56 30
56 28 0 -3 -11 -25 -25 -48 -40 -71 -36 -79 43 -79 l67 -1 -40 -23 c-74 -45
-78 -49 -63 -69 13 -18 19 -15 110 39 83 50 95 61 87 76 -8 15 -23 18 -89 18
-44 0 -80 3 -80 6 0 3 16 37 37 76 31 59 34 71 22 83 -12 12 -27 7 -103 -38z"/>
<path d="M1939 8686 c-42 -77 -44 -84 -27 -95 15 -9 20 -6 33 19 9 17 18 30
22 30 3 0 37 -18 75 -40 39 -22 74 -40 79 -40 4 0 13 9 19 19 9 17 1 25 -70
66 l-81 46 18 30 c16 26 16 31 3 39 -8 5 -17 10 -20 10 -3 -1 -26 -38 -51 -84z"/>
<path d="M8803 8383 c-97 -44 -101 -47 -91 -69 9 -18 15 -21 29 -14 27 15 49
12 49 -6 0 -9 16 -32 35 -51 30 -30 40 -35 68 -29 39 7 67 39 67 75 0 14 -12
52 -28 83 l-27 57 -102 -46z m106 -54 c14 -39 14 -35 -5 -53 -24 -24 -42 -19
-64 17 -26 41 -25 43 8 55 43 16 49 14 61 -19z"/>
<path d="M1803 8398 c-23 -25 -63 -101 -63 -118 0 -10 31 -26 157 -81 43 -18
43 -18 54 3 8 14 8 23 2 25 -58 20 -53 67 7 77 34 5 60 27 60 50 0 3 -20 3
-45 -1 -41 -5 -45 -4 -45 15 0 49 -90 70 -127 30z m83 -43 c7 -16 -1 -52 -15
-73 -7 -12 -14 -11 -40 2 -35 18 -38 31 -15 64 17 25 62 30 70 7z"/>
<path d="M4423 8177 l-133 -182 221 -3 c122 -1 224 -1 225 1 5 5 -169 367
-176 367 -3 0 -65 -82 -137 -183z"/>
<path d="M6151 8179 c-45 -100 -80 -183 -78 -185 2 -3 101 -3 220 -2 l215 3
-132 182 c-72 100 -134 182 -137 183 -3 0 -43 -81 -88 -181z"/>
<path d="M1669 8035 c-38 -20 -63 -78 -56 -129 17 -125 194 -130 227 -6 10 38
8 55 -13 98 -23 48 -104 67 -158 37z m111 -55 c42 -42 10 -120 -49 -120 -64 0
-98 73 -56 120 24 26 79 26 105 0z"/>
<path d="M8923 8031 c-44 -27 -56 -55 -51 -113 9 -88 83 -137 161 -105 47 20
71 66 64 125 -10 88 -103 138 -174 93z m112 -56 c30 -29 32 -64 5 -92 -26 -29
-52 -36 -84 -23 -55 21 -59 100 -6 127 37 19 58 16 85 -12z"/>
<path d="M4260 7756 c0 -2 34 -77 75 -167 l74 -164 291 -3 c159 -1 290 1 289
5 0 5 -33 80 -73 168 l-72 160 -292 3 c-161 1 -292 1 -292 -2z"/>
<path d="M5091 7738 c7 -13 41 -88 75 -168 l63 -145 174 -3 173 -2 76 170 76
170 -324 0 -325 0 12 -22z"/>
<path d="M5895 7599 c-39 -89 -72 -165 -73 -170 -2 -6 118 -8 288 -7 l292 3
74 165 c41 91 74 166 74 168 0 1 -132 2 -293 2 l-292 0 -70 -161z"/>
<path d="M1546 7627 c-21 -21 -46 -99 -46 -141 0 -9 31 -19 88 -30 48 -10 97
-20 110 -23 18 -4 22 -1 22 21 0 19 -6 27 -24 32 -23 5 -24 10 -23 66 2 52 -1
62 -22 79 -32 26 -77 24 -105 -4z m83 -45 c6 -11 7 -31 2 -48 -6 -23 -13 -28
-32 -26 -53 5 -63 27 -33 70 18 27 50 29 63 4z"/>
<path d="M9067 7625 c-53 -12 -99 -24 -102 -26 -2 -3 -2 -14 1 -26 4 -16 13
-20 37 -19 42 1 47 -27 12 -64 -22 -23 -26 -34 -20 -57 l7 -28 30 33 c27 31
31 33 47 18 27 -24 74 -20 101 9 21 22 22 31 17 87 -6 66 -15 99 -26 97 -3 -1
-50 -11 -104 -24z m87 -51 c17 -43 -1 -84 -36 -84 -19 0 -34 22 -39 60 -4 24
2 28 62 39 4 0 10 -6 13 -15z"/>
<path d="M9217 7283 c-4 -3 -7 -21 -7 -39 0 -31 -1 -32 -52 -38 -127 -16 -129
-16 -126 -39 3 -25 11 -25 121 -14 62 7 67 6 67 -12 0 -33 11 -51 32 -51 16 0
19 5 15 23 -3 12 -9 57 -12 100 -7 72 -17 91 -38 70z"/>
<path d="M4040 7008 l0 -262 280 -281 280 -280 0 543 0 542 -280 0 -280 0 0
-262z"/>
<path d="M4620 6595 l0 -675 423 -420 422 -419 418 -1 c230 0 417 4 415 8 -1
5 -185 188 -408 406 -223 219 -406 401 -408 405 -1 5 35 10 80 13 244 16 480
192 568 425 48 127 62 298 35 428 -47 227 -241 432 -461 489 -53 14 -139 16
-573 16 l-511 0 0 -675z m994 99 c12 -30 5 -109 -12 -144 -9 -19 -37 -48 -60
-65 l-44 -30 -294 -3 -294 -3 0 131 0 130 349 0 c309 0 350 -2 355 -16z"/>
<path d="M6200 6728 l0 -543 280 280 280 280 0 262 0 263 -280 0 -280 0 0
-542z"/>
<path d="M1457 7241 c-4 -17 7 -30 59 -67 35 -25 64 -49 64 -52 0 -4 -30 -20
-66 -36 -73 -33 -99 -66 -59 -77 13 -4 64 -10 115 -14 l92 -7 -4 23 c-3 22 -9
24 -60 27 -32 2 -58 6 -58 10 1 4 24 18 53 32 28 14 53 30 54 36 2 6 -19 26
-46 45 -53 35 -63 50 -33 44 9 -2 38 -6 65 -9 44 -5 47 -4 47 18 0 26 12 22
-164 42 -48 5 -54 4 -59 -15z"/>
<path d="M9060 6880 c-21 -77 10 -142 65 -142 35 0 42 8 63 72 19 60 35 72 52
40 8 -16 9 -30 1 -53 -9 -23 -8 -33 1 -39 20 -12 31 -4 40 28 18 64 -16 134
-65 134 -32 0 -53 -26 -67 -82 -9 -35 -17 -48 -31 -48 -24 0 -33 33 -19 76 10
30 10 38 -1 45 -23 14 -28 11 -39 -31z"/>
<path d="M1430 6775 l0 -25 110 0 110 0 0 25 0 25 -110 0 -110 0 0 -25z"/>
<path d="M4040 6185 c0 -307 0 -311 -24 -362 -34 -72 -97 -137 -165 -170 -80
-38 -202 -44 -285 -13 -96 37 -164 111 -202 224 l-16 46 -270 0 -269 0 6 -47
c56 -413 367 -724 774 -773 117 -15 261 0 383 40 331 106 579 414 604 750 l6
75 -271 270 -271 270 0 -310z"/>
<path d="M6482 6211 c-296 -304 -278 -274 -247 -418 62 -295 256 -532 524
-643 456 -188 965 15 1159 463 30 69 72 231 72 280 0 16 -19 17 -270 17 l-269
0 -10 -37 c-16 -60 -49 -114 -99 -166 -63 -64 -126 -87 -240 -87 -75 0 -95 4
-147 29 -68 32 -132 95 -167 161 -22 44 -23 52 -26 358 -2 171 -6 312 -11 312
-4 0 -126 -121 -269 -269z"/>
<path d="M1512 6310 c-29 -4 -55 -10 -56 -11 -5 -6 12 -120 18 -126 3 -3 12
-3 21 1 12 4 14 14 9 44 l-6 39 53 6 c30 4 62 7 71 7 21 0 32 -34 19 -59 -9
-16 -7 -21 10 -26 42 -14 54 63 18 109 -22 28 -51 31 -157 16z"/>
<path d="M9107 6302 c-49 -54 18 -137 78 -98 55 36 35 116 -29 116 -19 0 -40
-8 -49 -18z"/>
<path d="M1685 6004 c-19 -24 -21 -25 -50 -10 -57 30 -115 -7 -115 -73 0 -38
15 -109 24 -118 9 -10 216 40 216 51 0 24 -18 37 -46 34 -41 -4 -46 34 -9 72
19 20 25 34 20 49 -8 27 -15 26 -40 -5z m-58 -66 c6 -7 13 -25 17 -40 6 -25 3
-28 -30 -34 -26 -5 -39 -3 -45 7 -10 17 -12 63 -2 72 11 12 50 8 60 -5z"/>
<path d="M8901 5654 c-30 -38 -28 -99 3 -119 24 -16 140 -55 163 -55 7 0 20
25 30 56 14 47 15 57 3 64 -19 12 -27 5 -35 -30 -8 -35 -18 -36 -90 -12 -55
19 -67 40 -37 70 15 15 17 22 7 35 -16 22 -20 22 -44 -9z"/>
<path d="M1673 5617 c-34 -12 -65 -25 -68 -29 -4 -3 1 -32 11 -62 13 -41 22
-56 33 -54 17 4 19 28 8 64 -7 18 -1 23 52 39 73 22 95 16 89 -25 -3 -23 0
-31 15 -36 22 -7 24 -5 27 21 5 43 -1 66 -20 85 -26 26 -67 25 -147 -3z"/>
<path d="M8785 5339 c-7 -22 7 -39 33 -39 15 0 15 -15 2 -41 -6 -11 -21 -19
-35 -19 -25 0 -65 -31 -65 -51 0 -6 9 -8 20 -5 11 3 28 8 39 11 13 4 22 -2 31
-24 6 -17 25 -35 42 -42 46 -19 78 -2 109 56 48 91 51 85 -59 133 -53 23 -100
42 -104 42 -4 0 -10 -10 -13 -21z m130 -81 c14 -6 25 -15 25 -19 0 -21 -25
-59 -42 -65 -39 -12 -61 33 -38 77 12 22 20 23 55 7z"/>
<path d="M8632 5018 c-27 -29 -37 -71 -23 -96 6 -11 45 -40 87 -63 86 -47 83
-48 125 33 19 37 19 37 0 48 -16 8 -21 6 -26 -8 -3 -9 -11 -25 -19 -34 -12
-17 -17 -16 -69 13 -62 33 -72 57 -36 83 13 9 19 21 16 30 -9 22 -30 20 -55
-6z"/>
<path d="M1950 4960 c-41 -41 -14 -110 43 -110 32 0 67 32 67 60 0 27 -43 70
-70 70 -11 0 -29 -9 -40 -20z"/>
<path d="M5353 4940 c-129 -26 -203 -116 -203 -249 0 -219 293 -325 450 -162
122 125 80 329 -81 394 -47 20 -116 27 -166 17z m101 -114 c71 -30 100 -105
71 -182 -53 -140 -245 -94 -245 59 0 44 36 97 80 119 42 22 51 22 94 4z"/>
<path d="M7723 4940 c-97 -20 -143 -69 -143 -154 0 -71 40 -106 156 -137 97
-25 119 -40 104 -69 -20 -37 -125 -34 -201 5 l-28 15 -21 -46 c-11 -26 -20
-48 -20 -51 0 -2 21 -13 46 -24 57 -26 174 -35 232 -20 92 25 145 109 120 187
-17 50 -60 78 -150 99 -87 20 -108 30 -108 55 0 40 81 53 160 25 23 -8 44 -15
45 -15 10 0 37 92 29 99 -28 26 -157 44 -221 31z"/>
<path d="M2860 4695 l0 -236 68 3 67 3 3 233 2 232 -70 0 -70 0 0 -235z"/>
<path d="M3400 4695 l0 -236 63 3 62 3 0 117 c0 64 3 114 6 112 4 -2 31 -44
60 -94 49 -83 56 -90 85 -90 29 0 36 7 90 98 l59 97 3 -122 3 -123 59 0 60 0
0 235 0 236 -57 -3 -58 -3 -75 -127 c-41 -71 -77 -128 -81 -128 -3 0 -41 59
-85 130 l-79 130 -57 0 -58 0 0 -235z"/>
<path d="M4360 4695 l0 -235 65 0 64 0 3 63 3 62 85 5 c50 4 98 13 116 23 102
53 122 186 42 264 -49 47 -75 53 -234 53 l-144 0 0 -235z m268 119 c16 -11 22
-25 22 -54 0 -52 -26 -70 -102 -70 l-58 0 0 70 0 70 58 0 c36 0 66 -6 80 -16z"/>
<path d="M6060 4695 l0 -235 65 0 65 0 0 66 0 65 37 -3 c33 -3 42 -10 81 -65
l43 -63 70 0 c53 0 68 3 63 13 -4 6 -27 40 -51 73 l-43 62 25 16 c43 28 65 75
65 137 0 70 -27 115 -90 147 -40 20 -59 22 -187 22 l-143 0 0 -235z m264 114
c17 -13 26 -30 26 -49 0 -44 -40 -70 -106 -70 l-54 0 0 70 0 70 54 0 c39 0 60
-6 80 -21z"/>
<path d="M6820 4880 l0 -50 70 0 70 0 0 -185 0 -185 70 0 70 0 0 185 0 185 70
0 70 0 0 50 0 50 -210 0 -210 0 0 -50z"/>
<path d="M8342 4558 c-22 -22 -13 -33 74 -96 69 -50 89 -61 100 -51 28 23 20
31 -144 146 -14 10 -21 10 -30 1z"/>
<path d="M2287 4532 c-21 -23 -21 -33 0 -93 14 -40 15 -51 5 -61 -11 -11 -18
-8 -38 15 -13 15 -24 35 -24 43 0 8 -9 14 -20 14 -27 0 -26 -28 3 -71 26 -38
62 -55 100 -45 37 9 44 47 22 108 -13 36 -15 52 -6 61 15 15 58 -26 66 -64 7
-31 32 -39 41 -14 9 23 -15 72 -48 100 -35 29 -78 32 -101 7z"/>
<path d="M8192 4359 c-10 -16 -7 -23 25 -54 21 -19 41 -35 46 -35 4 0 7 -4 7
-9 0 -5 -27 -3 -59 4 -77 16 -85 8 -60 -63 10 -30 19 -57 19 -59 0 -2 -23 15
-50 38 -47 39 -52 41 -67 26 -15 -15 -13 -19 33 -60 123 -110 119 -107 136
-91 13 14 12 23 -9 87 -12 39 -23 74 -23 78 0 3 30 0 68 -7 89 -17 99 -17 106
3 7 17 -23 49 -125 132 -34 28 -36 29 -47 10z"/>
<path d="M2532 4200 l-64 -59 -23 27 c-21 24 -25 25 -39 12 -14 -14 -9 -23 52
-89 61 -67 69 -72 81 -57 12 14 11 20 -10 42 l-24 26 67 63 c62 59 65 64 49
79 -10 9 -19 16 -22 16 -2 -1 -33 -27 -67 -60z"/>
<path d="M2785 4019 c-5 -30 -11 -39 -22 -35 -18 7 -69 -18 -77 -39 -18 -47
-6 -78 47 -128 l52 -49 77 83 c72 78 76 85 61 101 -16 18 -17 17 -40 -4 -35
-33 -59 -15 -55 41 3 39 -10 71 -28 71 -5 0 -11 -18 -15 -41z m19 -103 l30
-23 -26 -28 c-30 -32 -48 -29 -74 10 -16 24 -16 27 1 45 23 26 34 25 69 -4z"/>
<path d="M7880 4035 c-10 -13 -10 -19 4 -33 22 -25 20 -34 -13 -66 -35 -34
-46 -69 -30 -99 36 -67 103 -61 178 16 l34 36 -74 80 c-40 45 -76 81 -80 81
-3 0 -12 -7 -19 -15z m88 -172 c-26 -27 -65 -28 -82 -1 -8 14 -5 23 19 48 l29
30 28 -27 28 -27 -22 -23z"/>
<path d="M3053 3765 c-38 -16 -63 -60 -63 -111 0 -29 8 -44 39 -75 34 -34 44
-39 86 -39 40 0 52 5 81 34 27 27 34 42 34 73 0 49 -29 95 -73 116 -42 20 -62
21 -104 2z m104 -57 c64 -60 -21 -162 -90 -108 -34 27 -36 74 -5 107 27 29 65
29 95 1z"/>
<path d="M7536 3751 c-113 -75 -42 -246 87 -210 52 14 97 70 97 120 0 33 -6
47 -34 75 -28 28 -41 34 -77 34 -27 0 -56 -8 -73 -19z m109 -46 c34 -33 33
-77 -1 -104 -15 -12 -34 -21 -44 -21 -34 0 -70 39 -70 75 0 24 7 39 26 54 35
27 59 26 89 -4z"/>
<path d="M7256 3565 c-17 -13 -18 -16 -3 -38 27 -42 -15 -62 -71 -33 -25 13
-30 12 -50 -3 l-23 -17 34 -12 c32 -12 34 -15 33 -58 -1 -54 26 -84 76 -84 27
0 138 54 138 66 0 6 -110 194 -113 194 -1 0 -11 -7 -21 -15z m52 -137 l21 -33
-29 -18 c-59 -38 -108 17 -54 60 16 13 32 23 36 23 3 0 15 -15 26 -32z"/>
<path d="M3518 3488 c-15 -23 -16 -23 -52 -5 -50 24 -88 22 -114 -6 -24 -26
-28 -73 -9 -98 20 -27 118 -82 127 -73 5 5 31 48 59 96 47 82 49 88 31 98 -25
13 -25 13 -42 -12z m-67 -44 c17 -8 29 -18 27 -22 -37 -73 -34 -71 -72 -41
-28 22 -33 48 -14 67 16 16 23 15 59 -4z"/>
<path d="M3741 3378 c-5 -13 -25 -58 -44 -100 -35 -75 -35 -78 -16 -88 16 -9
30 -3 83 35 35 25 66 45 68 45 3 0 9 -33 13 -72 7 -74 17 -98 40 -98 12 0 103
196 94 204 -2 2 -12 6 -22 8 -15 2 -24 -9 -40 -49 -12 -29 -25 -53 -28 -53 -4
0 -9 27 -13 60 -8 70 -15 73 -75 29 -24 -17 -45 -29 -47 -26 -2 2 6 27 18 56
18 45 19 54 7 62 -22 13 -29 11 -38 -13z"/>
<path d="M6886 3367 c-16 -12 -15 -18 18 -91 20 -43 36 -80 36 -83 0 -2 -13
-9 -30 -14 -30 -11 -39 -32 -19 -44 10 -7 179 64 179 75 -1 22 -19 30 -44 20
-15 -5 -30 -10 -34 -10 -4 0 -23 36 -42 80 -19 44 -38 80 -41 80 -3 0 -13 -6
-23 -13z"/>
<path d="M6564 3241 c-42 -19 -54 -36 -54 -77 0 -37 38 -56 98 -48 35 4 52 3
57 -7 11 -18 -31 -49 -66 -49 -22 0 -29 -5 -29 -20 0 -43 114 -14 141 36 11
22 11 30 -2 52 -13 25 -21 27 -82 30 -58 3 -67 5 -67 22 0 21 59 45 91 37 15
-4 19 0 19 19 0 20 -5 24 -32 24 -18 0 -51 -9 -74 -19z"/>
<path d="M4127 3125 c-34 -101 -35 -104 -15 -111 11 -3 23 -2 28 3 4 4 21 51
39 102 31 95 30 110 -6 111 -6 0 -27 -47 -46 -105z"/>
<path d="M4634 3092 c-19 -13 -31 -45 -45 -120 -14 -84 -13 -86 58 -96 49 -6
63 -2 63 18 0 8 -17 16 -41 20 -32 5 -39 10 -35 24 3 9 8 35 12 57 11 64 36
82 69 49 15 -16 18 -16 33 0 16 16 16 19 -7 37 -23 19 -85 26 -107 11z"/>
<path d="M4910 3061 c0 -3 9 -20 19 -38 l20 -31 -23 -16 c-47 -30 -41 -103 11
-129 15 -8 54 -17 85 -19 l57 -5 5 36 c3 20 8 71 12 114 l6 77 -26 0 c-22 0
-26 -4 -26 -30 0 -25 -4 -30 -25 -30 -19 0 -31 10 -46 34 -11 20 -30 36 -44
39 -14 2 -25 1 -25 -2z m130 -151 c0 -36 -2 -40 -26 -40 -38 0 -64 18 -64 44
0 31 7 36 52 36 38 0 38 0 38 -40z"/>
<path d="M6035 3038 c-27 -15 -35 -28 -35 -60 0 -36 24 -58 65 -58 61 0 84 61
40 105 -27 28 -40 30 -70 13z"/>
<path d="M5310 3013 c-18 -23 -20 -38 -18 -112 l3 -86 63 -3 c56 -3 62 -1 62
17 0 16 -8 20 -37 23 l-38 3 0 64 c0 74 18 97 56 73 18 -12 23 -12 30 0 13 20
11 26 -10 38 -38 20 -88 12 -111 -17z"/>
</g>
</svg>
